<?xml version="1.0" encoding="utf-8"?>
<svg id="master-artboard" viewBox="0 0 398.29473876953125 247.6608123779297" version="1.0" xmlns="http://www.w3.org/2000/svg" x="0px" y="0px" width="398.29473876953125px" height="247.6608123779297px" enable-background="new 0 0 1400 980"><rect id="ee-background" x="0" y="0" width="398.29473876953125" height="247.6608123779297" style="fill: white; fill-opacity: 0; pointer-events: none;"/>
<metadata>
	<sfw xmlns="&amp;ns_sfw;">
		<slices xmlns="http://www.w3.org/2000/svg"/>
		<slicesourcebounds xmlns="http://www.w3.org/2000/svg" width="1194.419" height="734.076" y="-857.038" x="102.805" bottomleftorigin="true"/>
	</sfw>
</metadata>
<g transform="matrix(1, 0, 0, 1, -84.17691802978516, -67.3415298461914)">
		<path fill-rule="evenodd" clip-rule="evenodd" fill="#3E2F25" d="M381.812,228.815l6.891,6.03l6.678-1.938l-2.048-3.662h32.09&#10;&#9;&#9;&#9;c1.615,0,3.016-4.737,3.016-3.014v0.753l5.277-0.43l0.646-4.307l-7-6.03l0,0c-0.538-0.43-1.184-0.755-1.938-0.755h-41.995&#10;&#9;&#9;&#9;c-1.723,0-3.123,1.4-3.123,3.124v7.646C380.304,227.307,380.949,228.277,381.812,228.815L381.812,228.815z"/>
		<path d="M 388.701996 225.800995 H 439.637997 V 234.844995 H 388.701996 V 225.800995 Z" fill-rule="evenodd" clip-rule="evenodd" fill="#544033"/>
		<path fill-rule="evenodd" clip-rule="evenodd" fill="#904520" d="M377.72,221.276l6.891,5.923l6.678-1.938l-1.94-3.552h44.905&#10;&#9;&#9;&#9;c1.723,0,3.122-1.4,3.122-3.124v-34.243l5.277-0.43l0.538-4.307l-6.891-6.03l0,0c-0.538-0.43-1.186-0.755-2.046-0.755h-54.918&#10;&#9;&#9;&#9;c-1.723,0-3.123,1.4-3.123,3.124v42.642C376.212,219.661,376.857,220.739,377.72,221.276L377.72,221.276z"/>
		<path fill-rule="evenodd" clip-rule="evenodd" fill="#674F3F" d="M377.72,221.276l6.891,5.923l3.77-1.076l-1.184-34.243&#10;&#9;&#9;&#9;l-2.693-11.845l-6.891-6.676c-0.863,0.538-1.4,1.506-1.4,2.584v42.642C376.212,219.661,376.857,220.739,377.72,221.276&#10;&#9;&#9;&#9;L377.72,221.276z"/>
		<path fill-rule="evenodd" clip-rule="evenodd" fill="#745D4C" d="M441.682,179.172h-55.025c-1.723,0-3.014,1.4-3.014,3.016v42.75&#10;&#9;&#9;&#9;c0,1.616,1.291,3.016,3.014,3.016h55.025c1.616,0,3.016-1.4,3.016-3.016v-42.75C444.698,180.573,443.297,179.172,441.682,179.172&#10;&#9;&#9;&#9;L441.682,179.172z"/>
		<path d="M 390.209991 186.602997 H 438.12899 V 220.522995 H 390.209991 V 186.602997 Z" fill-rule="evenodd" clip-rule="evenodd" fill="#B29D92"/>
		<path d="M 393.872009 189.078995 H 434.360008 V 203.832994 H 393.872009 V 189.078995 Z" fill-rule="evenodd" clip-rule="evenodd" fill="#D2C6C0"/>
		<path d="M 393.872009 206.740005 H 412.070009 V 218.585006 H 393.872009 V 206.740005 Z" fill-rule="evenodd" clip-rule="evenodd" fill="#D2C6C0"/>
		<path d="M 416.269989 206.740005 H 434.360989 V 218.585006 H 416.269989 V 206.740005 Z" fill-rule="evenodd" clip-rule="evenodd" fill="#D2C6C0"/>
		<path fill="#876A5A" d="M410.347,194.249c-0.646,0-1.185-0.538-1.185-1.186c0-0.646,0.54-1.183,1.185-1.183h7.646&#10;&#9;&#9;&#9;c0.646,0,1.076,0.538,1.076,1.183c0,0.647-0.43,1.186-1.076,1.186H410.347z"/>
		<path fill="#876A5A" d="M400.763,211.694c-0.646,0-1.183-0.54-1.183-1.186s0.538-1.076,1.183-1.076h4.522&#10;&#9;&#9;&#9;c0.647,0,1.186,0.43,1.186,1.076s-0.538,1.186-1.186,1.186H400.763z"/>
		<path fill="#876A5A" d="M423.053,211.694c-0.646,0-1.184-0.54-1.184-1.186s0.538-1.076,1.184-1.076h4.524&#10;&#9;&#9;&#9;c0.646,0,1.184,0.43,1.184,1.076s-0.538,1.186-1.184,1.186H423.053z"/>
		<path d="M 440.6059875488281 177.66600036621094 L 447.7139892578125 184.6649932861328 L 447.7139892578125 176.26600646972656 L 440.6059875488281 169.375 L 374.59600830078125 169.375 L 374.59600830078125 177.66600036621094 Z" fill-rule="evenodd" clip-rule="evenodd" fill="#58453B"/>
		<path d="M 381.70401 176.266006 H 447.714012 V 184.665007 H 381.70401 V 176.266006 Z" fill-rule="evenodd" clip-rule="evenodd" fill="#544033"/>
		<path d="M 374.59600830078125 177.66600036621094 L 381.7040100097656 184.6649932861328 L 381.7040100097656 176.26600646972656 L 374.59600830078125 169.375 Z" fill-rule="evenodd" clip-rule="evenodd" fill="#453429"/>
		<path d="M 381.70401 178.311996 H 447.714012 V 179.711996 H 381.70401 V 178.311996 Z" fill-rule="evenodd" clip-rule="evenodd" fill="#D2C6C0"/>
		<path d="M 381.70401 181.110992 H 447.714012 V 182.510992 H 381.70401 V 181.110992 Z" fill-rule="evenodd" clip-rule="evenodd" fill="#D2C6C0"/>
		<path fill="#372921" d="M409.917,147.73c0-0.647,0.538-1.293,1.291-1.293c0.647,0,1.293,0.646,1.293,1.293v24.121&#10;&#9;&#9;&#9;c0,0.753-0.646,1.293-1.293,1.293c-0.753,0-1.291-0.54-1.291-1.293V147.73z"/>
		<path fill="#372921" d="M415.839,170.559c0.753,0,1.291,0.538,1.291,1.292c0,0.753-0.538,1.293-1.291,1.293h-9.369&#10;&#9;&#9;&#9;c-0.646,0-1.293-0.54-1.293-1.293c0-0.755,0.647-1.292,1.293-1.292H415.839z"/>
		<path fill="#372921" d="M413.146,161.191c0.755,0,1.292,0.538,1.292,1.291c0,0.646-0.538,1.292-1.292,1.292h-3.984&#10;&#9;&#9;&#9;c-0.753,0-1.291-0.647-1.291-1.292c0-0.753,0.538-1.291,1.291-1.291H413.146z"/>
		<path fill="#372921" d="M413.146,156.344c0.755,0,1.292,0.646,1.292,1.293c0,0.753-0.538,1.291-1.292,1.291h-3.984&#10;&#9;&#9;&#9;c-0.753,0-1.291-0.538-1.291-1.291c0-0.647,0.538-1.293,1.291-1.293H413.146z"/>
		<path fill="#372921" d="M413.146,151.607c0.755,0,1.292,0.538,1.292,1.291c0,0.755-0.538,1.293-1.292,1.293h-3.984&#10;&#9;&#9;&#9;c-0.753,0-1.291-0.538-1.291-1.293c0-0.753,0.538-1.291,1.291-1.291H413.146z"/>
		<path fill="#372921" d="M414.331,169.16c0.753,0,1.293,0.538,1.293,1.291c0,0.753-0.54,1.293-1.293,1.293h-6.245&#10;&#9;&#9;&#9;c-0.753,0-1.4-0.54-1.4-1.293c0-0.753,0.647-1.291,1.4-1.291H414.331z"/>
		<path d="M 404.9620056152344 125.01000213623047 L 399.68701171875 148.697998046875 L 411.2080078125 148.697998046875 L 422.7300109863281 148.697998046875 L 417.4530029296875 125.01000213623047 L 411.2080078125 125.01000213623047 Z" fill-rule="evenodd" clip-rule="evenodd" fill="#C8B3A3"/>
	</g><path fill-rule="evenodd" clip-rule="evenodd" fill="#3E2F25" d="M168.707,228.815l-6.893,6.03l-6.568-1.938l1.938-3.662h-31.982&#10;&#9;&#9;&#9;c-1.723,0-3.122-4.737-3.122-3.014v0.753l-5.277-0.43l-0.538-4.307l6.891-6.03l0,0c0.538-0.43,1.186-0.755,2.046-0.755h41.997&#10;&#9;&#9;&#9;c1.615,0,3.016,1.4,3.016,3.124v7.646C170.215,227.307,169.675,228.277,168.707,228.815L168.707,228.815z" transform="matrix(1, 0, 0, 1, -84.17691802978516, -67.3415298461914)"/><path d="M 110.987999 225.800995 H 161.813999 V 234.844995 H 110.987999 V 225.800995 Z" fill-rule="evenodd" clip-rule="evenodd" fill="#544033" transform="matrix(1, 0, 0, 1, -84.17691802978516, -67.3415298461914)"/><path fill-rule="evenodd" clip-rule="evenodd" fill="#904520" d="M172.799,221.276l-6.893,5.923l-6.676-1.938l2.046-3.552h-45.011&#10;&#9;&#9;&#9;c-1.724,0-3.124-1.4-3.124-3.124v-34.243l-5.277-0.43l-0.538-4.307l6.893-6.03l0,0c0.538-0.43,1.291-0.755,2.046-0.755h54.918&#10;&#9;&#9;&#9;c1.723,0,3.123,1.4,3.123,3.124v42.642C174.307,219.661,173.659,220.739,172.799,221.276L172.799,221.276z" transform="matrix(1, 0, 0, 1, -84.17691802978516, -67.3415298461914)"/><path fill-rule="evenodd" clip-rule="evenodd" fill="#674F3F" d="M172.799,221.276l-6.893,5.923l-3.768-1.076l1.291-34.243&#10;&#9;&#9;&#9;l2.586-11.845l6.891-6.676c0.861,0.538,1.4,1.506,1.4,2.584v42.642C174.307,219.661,173.659,220.739,172.799,221.276&#10;&#9;&#9;&#9;L172.799,221.276z" transform="matrix(1, 0, 0, 1, -84.17691802978516, -67.3415298461914)"/><path fill-rule="evenodd" clip-rule="evenodd" fill="#745D4C" d="M108.835,179.172h55.025c1.723,0,3.124,1.4,3.124,3.016v42.75&#10;&#9;&#9;&#9;c0,1.616-1.401,3.016-3.124,3.016h-55.025c-1.616,0-3.015-1.4-3.015-3.016v-42.75C105.82,180.573,107.219,179.172,108.835,179.172&#10;&#9;&#9;&#9;L108.835,179.172z" transform="matrix(1, 0, 0, 1, -84.17691802978516, -67.3415298461914)"/><path d="M 112.496002 186.602997 H 160.308002 V 220.522995 H 112.496002 V 186.602997 Z" fill-rule="evenodd" clip-rule="evenodd" fill="#B29D92" transform="matrix(1, 0, 0, 1, -84.17691802978516, -67.3415298461914)"/><path d="M 116.157997 189.078995 H 156.645996 V 203.832994 H 116.157997 V 189.078995 Z" fill-rule="evenodd" clip-rule="evenodd" fill="#D2C6C0" transform="matrix(1, 0, 0, 1, -84.17691802978516, -67.3415298461914)"/><path d="M 138.447998 206.740005 H 156.645998 V 218.585006 H 138.447998 V 206.740005 Z" fill-rule="evenodd" clip-rule="evenodd" fill="#D2C6C0" transform="matrix(1, 0, 0, 1, -84.17691802978516, -67.3415298461914)"/><path d="M 116.157997 206.740005 H 134.248997 V 218.585006 H 116.157997 V 206.740005 Z" fill-rule="evenodd" clip-rule="evenodd" fill="#D2C6C0" transform="matrix(1, 0, 0, 1, -84.17691802978516, -67.3415298461914)"/><path fill="#876A5A" d="M140.171,194.249c0.646,0,1.183-0.538,1.183-1.186c0-0.646-0.538-1.183-1.183-1.183h-7.539&#10;&#9;&#9;&#9;c-0.647,0-1.185,0.538-1.185,1.183c0,0.647,0.538,1.186,1.185,1.186H140.171z" transform="matrix(1, 0, 0, 1, -84.17691802978516, -67.3415298461914)"/><path fill="#876A5A" d="M149.861,211.694c0.647,0,1.078-0.54,1.078-1.186s-0.43-1.076-1.078-1.076h-4.63&#10;&#9;&#9;&#9;c-0.646,0-1.076,0.43-1.076,1.076s0.43,1.186,1.076,1.186H149.861z" transform="matrix(1, 0, 0, 1, -84.17691802978516, -67.3415298461914)"/><path fill="#876A5A" d="M127.463,211.694c0.647,0,1.185-0.54,1.185-1.186s-0.538-1.076-1.185-1.076h-4.522&#10;&#9;&#9;&#9;c-0.646,0-1.184,0.43-1.184,1.076s0.538,1.186,1.184,1.186H127.463z" transform="matrix(1, 0, 0, 1, -84.17691802978516, -67.3415298461914)"/><path d="M 109.91300201416016 177.66600036621094 L 102.80500030517578 184.6649932861328 L 102.80500030517578 176.26600646972656 L 109.91300201416016 169.375 L 175.92100524902344 169.375 L 175.92100524902344 177.66600036621094 Z" fill-rule="evenodd" clip-rule="evenodd" fill="#58453B" transform="matrix(1, 0, 0, 1, -84.17691802978516, -67.3415298461914)"/><path d="M 102.805 176.266006 H 168.815002 V 184.665007 H 102.805 V 176.266006 Z" fill-rule="evenodd" clip-rule="evenodd" fill="#544033" transform="matrix(1, 0, 0, 1, -84.17691802978516, -67.3415298461914)"/><path d="M 175.92100524902344 177.66600036621094 L 168.81399536132812 184.6649932861328 L 168.81399536132812 176.26600646972656 L 175.92100524902344 169.375 Z" fill-rule="evenodd" clip-rule="evenodd" fill="#453429" transform="matrix(1, 0, 0, 1, -84.17691802978516, -67.3415298461914)"/><path d="M 102.805 178.311996 H 168.815002 V 179.711996 H 102.805 V 178.311996 Z" fill-rule="evenodd" clip-rule="evenodd" fill="#D2C6C0" transform="matrix(1, 0, 0, 1, -84.17691802978516, -67.3415298461914)"/><path d="M 102.805 181.110992 H 168.815002 V 182.510992 H 102.805 V 181.110992 Z" fill-rule="evenodd" clip-rule="evenodd" fill="#D2C6C0" transform="matrix(1, 0, 0, 1, -84.17691802978516, -67.3415298461914)"/><path fill="#372921" d="M138.018,147.73c0-0.647,0.646-1.293,1.291-1.293c0.753,0,1.4,0.646,1.4,1.293v24.121&#10;&#9;&#9;&#9;c0,0.753-0.647,1.293-1.4,1.293c-0.646,0-1.291-0.54-1.291-1.293V147.73z" transform="matrix(1, 0, 0, 1, -84.17691802978516, -67.3415298461914)"/><path fill="#372921" d="M144.046,170.559c0.755,0,1.293,0.538,1.293,1.292c0,0.753-0.538,1.293-1.293,1.293h-9.367&#10;&#9;&#9;&#9;c-0.753,0-1.292-0.54-1.292-1.293c0-0.755,0.54-1.292,1.292-1.292H144.046z" transform="matrix(1, 0, 0, 1, -84.17691802978516, -67.3415298461914)"/><path fill="#372921" d="M141.354,161.191c0.755,0,1.293,0.538,1.293,1.291c0,0.646-0.538,1.292-1.293,1.292h-3.984&#10;&#9;&#9;&#9;c-0.753,0-1.291-0.647-1.291-1.292c0-0.753,0.538-1.291,1.291-1.291H141.354z" transform="matrix(1, 0, 0, 1, -84.17691802978516, -67.3415298461914)"/><path fill="#372921" d="M141.354,156.344c0.755,0,1.293,0.646,1.293,1.293c0,0.753-0.538,1.291-1.293,1.291h-3.984&#10;&#9;&#9;&#9;c-0.753,0-1.291-0.538-1.291-1.291c0-0.647,0.538-1.293,1.291-1.293H141.354z" transform="matrix(1, 0, 0, 1, -84.17691802978516, -67.3415298461914)"/><path fill="#372921" d="M141.354,151.607c0.755,0,1.293,0.538,1.293,1.291c0,0.755-0.538,1.293-1.293,1.293h-3.984&#10;&#9;&#9;&#9;c-0.753,0-1.291-0.538-1.291-1.293c0-0.753,0.538-1.291,1.291-1.291H141.354z" transform="matrix(1, 0, 0, 1, -84.17691802978516, -67.3415298461914)"/><path fill="#372921" d="M142.54,169.16c0.646,0,1.291,0.538,1.291,1.291c0,0.753-0.646,1.293-1.291,1.293h-6.353&#10;&#9;&#9;&#9;c-0.647,0-1.292-0.54-1.292-1.293c0-0.753,0.646-1.291,1.292-1.291H142.54z" transform="matrix(1, 0, 0, 1, -84.17691802978516, -67.3415298461914)"/><path d="M 133.06300354003906 125.01000213623047 L 127.78600311279297 148.697998046875 L 139.3090057373047 148.697998046875 L 150.93899536132812 148.697998046875 L 145.5540008544922 125.01000213623047 L 139.3090057373047 125.01000213623047 Z" fill-rule="evenodd" clip-rule="evenodd" fill="#C8B3A3" transform="matrix(1, 0, 0, 1, -84.17691802978516, -67.3415298461914)"/><path d="M 182.490997 134.914993 H 368.136002 V 214.815994 H 182.490997 V 134.914993 Z" fill-rule="evenodd" clip-rule="evenodd" fill="#745D4C" transform="matrix(1, 0, 0, 1, -84.17691802978516, -67.3415298461914)"/><path d="M 187.873993 141.699997 H 362.750992 V 197.262997 H 187.873993 V 141.699997 Z" fill-rule="evenodd" clip-rule="evenodd" fill="#B29D92" transform="matrix(1, 0, 0, 1, -84.17691802978516, -67.3415298461914)"/><path d="M 187.87399291992188 182.9409942626953 L 150.29299926757812 200.2790069580078 L 165.4759979248047 211.4770050048828 L 371.4739990234375 215.46099853515625 L 400.2250061035156 200.2790069580078 L 362.7510070800781 182.9409942626953 L 187.87399291992188 182.9409942626953 Z" fill-rule="evenodd" clip-rule="evenodd" fill="#F4ABA0" transform="matrix(1, 0, 0, 1, -84.17691802978516, -67.3415298461914)"/><path d="M 158.800003 229.785004 H 173.552003 V 261.767004 H 158.800003 V 229.785004 Z" fill-rule="evenodd" clip-rule="evenodd" fill="#553D28" transform="matrix(1, 0, 0, 1, -84.17691802978516, -67.3415298461914)"/><path d="M 376.964996 229.785004 H 391.718996 V 261.767004 H 376.964996 V 229.785004 Z" fill-rule="evenodd" clip-rule="evenodd" fill="#553D28" transform="matrix(1, 0, 0, 1, -84.17691802978516, -67.3415298461914)"/><path d="M 150.292999 219.770996 H 400.225006 V 254.228996 H 150.292999 V 219.770996 Z" fill-rule="evenodd" clip-rule="evenodd" fill="#745D4C" transform="matrix(1, 0, 0, 1, -84.17691802978516, -67.3415298461914)"/><path d="M 156.324005 227.414993 H 394.195007 V 249.059994 H 156.324005 V 227.414993 Z" fill-rule="evenodd" clip-rule="evenodd" fill="#B29D92" transform="matrix(1, 0, 0, 1, -84.17691802978516, -67.3415298461914)"/><path d="M 150.292999 200.279007 H 400.225006 V 222.246006 H 150.292999 V 200.279007 Z" fill-rule="evenodd" clip-rule="evenodd" fill="#DE8274" transform="matrix(1, 0, 0, 1, -84.17691802978516, -67.3415298461914)"/><path d="M 191.427994 145.039001 H 212.317993 V 151.283001 H 191.427994 V 145.039001 Z" fill-rule="evenodd" clip-rule="evenodd" fill="#977F75" transform="matrix(1, 0, 0, 1, -84.17691802978516, -67.3415298461914)"/><path d="M 215.871002 145.039001 H 236.763002 V 151.283001 H 215.871002 V 145.039001 Z" fill-rule="evenodd" clip-rule="evenodd" fill="#977F75" transform="matrix(1, 0, 0, 1, -84.17691802978516, -67.3415298461914)"/><path d="M 240.315002 145.039001 H 261.315002 V 151.283001 H 240.315002 V 145.039001 Z" fill-rule="evenodd" clip-rule="evenodd" fill="#977F75" transform="matrix(1, 0, 0, 1, -84.17691802978516, -67.3415298461914)"/><path d="M 264.759003 145.039001 H 285.758003 V 151.283001 H 264.759003 V 145.039001 Z" fill-rule="evenodd" clip-rule="evenodd" fill="#977F75" transform="matrix(1, 0, 0, 1, -84.17691802978516, -67.3415298461914)"/><path d="M 289.312012 145.039001 H 310.202011 V 151.283001 H 289.312012 V 145.039001 Z" fill-rule="evenodd" clip-rule="evenodd" fill="#977F75" transform="matrix(1, 0, 0, 1, -84.17691802978516, -67.3415298461914)"/><path d="M 313.756012 145.039001 H 334.646011 V 151.283001 H 313.756012 V 145.039001 Z" fill-rule="evenodd" clip-rule="evenodd" fill="#977F75" transform="matrix(1, 0, 0, 1, -84.17691802978516, -67.3415298461914)"/><path d="M 338.199005 145.039001 H 359.091005 V 151.283001 H 338.199005 V 145.039001 Z" fill-rule="evenodd" clip-rule="evenodd" fill="#977F75" transform="matrix(1, 0, 0, 1, -84.17691802978516, -67.3415298461914)"/><path d="M 191.427994 154.729004 H 200.149994 V 161.084004 H 191.427994 V 154.729004 Z" fill-rule="evenodd" clip-rule="evenodd" fill="#977F75" transform="matrix(1, 0, 0, 1, -84.17691802978516, -67.3415298461914)"/><path d="M 203.595993 154.729004 H 224.594994 V 161.084004 H 203.595993 V 154.729004 Z" fill-rule="evenodd" clip-rule="evenodd" fill="#977F75" transform="matrix(1, 0, 0, 1, -84.17691802978516, -67.3415298461914)"/><path d="M 228.147003 154.729004 H 249.039003 V 161.084004 H 228.147003 V 154.729004 Z" fill-rule="evenodd" clip-rule="evenodd" fill="#977F75" transform="matrix(1, 0, 0, 1, -84.17691802978516, -67.3415298461914)"/><path d="M 252.591003 154.729004 H 273.483004 V 161.084004 H 252.591003 V 154.729004 Z" fill-rule="evenodd" clip-rule="evenodd" fill="#977F75" transform="matrix(1, 0, 0, 1, -84.17691802978516, -67.3415298461914)"/><path d="M 277.036011 154.729004 H 297.92601 V 161.084004 H 277.036011 V 154.729004 Z" fill-rule="evenodd" clip-rule="evenodd" fill="#977F75" transform="matrix(1, 0, 0, 1, -84.17691802978516, -67.3415298461914)"/><path d="M 301.480011 154.729004 H 322.47801 V 161.084004 H 301.480011 V 154.729004 Z" fill-rule="evenodd" clip-rule="evenodd" fill="#977F75" transform="matrix(1, 0, 0, 1, -84.17691802978516, -67.3415298461914)"/><path d="M 325.924011 154.729004 H 346.921011 V 161.084004 H 325.924011 V 154.729004 Z" fill-rule="evenodd" clip-rule="evenodd" fill="#977F75" transform="matrix(1, 0, 0, 1, -84.17691802978516, -67.3415298461914)"/><path d="M 350.475006 154.729004 H 359.091006 V 161.084004 H 350.475006 V 154.729004 Z" fill-rule="evenodd" clip-rule="evenodd" fill="#977F75" transform="matrix(1, 0, 0, 1, -84.17691802978516, -67.3415298461914)"/><path d="M 191.427994 164.419998 H 212.317993 V 170.665998 H 191.427994 V 164.419998 Z" fill-rule="evenodd" clip-rule="evenodd" fill="#977F75" transform="matrix(1, 0, 0, 1, -84.17691802978516, -67.3415298461914)"/><path d="M 215.871002 164.419998 H 236.763002 V 170.665998 H 215.871002 V 164.419998 Z" fill-rule="evenodd" clip-rule="evenodd" fill="#977F75" transform="matrix(1, 0, 0, 1, -84.17691802978516, -67.3415298461914)"/><path d="M 240.315002 164.419998 H 261.315002 V 170.665998 H 240.315002 V 164.419998 Z" fill-rule="evenodd" clip-rule="evenodd" fill="#977F75" transform="matrix(1, 0, 0, 1, -84.17691802978516, -67.3415298461914)"/><path d="M 264.759003 164.419998 H 285.758003 V 170.665998 H 264.759003 V 164.419998 Z" fill-rule="evenodd" clip-rule="evenodd" fill="#977F75" transform="matrix(1, 0, 0, 1, -84.17691802978516, -67.3415298461914)"/><path d="M 289.312012 164.419998 H 310.202011 V 170.665998 H 289.312012 V 164.419998 Z" fill-rule="evenodd" clip-rule="evenodd" fill="#977F75" transform="matrix(1, 0, 0, 1, -84.17691802978516, -67.3415298461914)"/><path d="M 313.756012 164.419998 H 334.646011 V 170.665998 H 313.756012 V 164.419998 Z" fill-rule="evenodd" clip-rule="evenodd" fill="#977F75" transform="matrix(1, 0, 0, 1, -84.17691802978516, -67.3415298461914)"/><path d="M 338.199005 164.419998 H 359.091005 V 170.665998 H 338.199005 V 164.419998 Z" fill-rule="evenodd" clip-rule="evenodd" fill="#977F75" transform="matrix(1, 0, 0, 1, -84.17691802978516, -67.3415298461914)"/><path d="M 191.427994 174.112 H 200.149994 V 180.465 H 191.427994 V 174.112 Z" fill-rule="evenodd" clip-rule="evenodd" fill="#977F75" transform="matrix(1, 0, 0, 1, -84.17691802978516, -67.3415298461914)"/><path d="M 203.595993 174.112 H 224.594994 V 180.465 H 203.595993 V 174.112 Z" fill-rule="evenodd" clip-rule="evenodd" fill="#977F75" transform="matrix(1, 0, 0, 1, -84.17691802978516, -67.3415298461914)"/><path d="M 228.147003 174.112 H 249.039003 V 180.465 H 228.147003 V 174.112 Z" fill-rule="evenodd" clip-rule="evenodd" fill="#977F75" transform="matrix(1, 0, 0, 1, -84.17691802978516, -67.3415298461914)"/><path d="M 252.591003 174.112 H 273.483004 V 180.465 H 252.591003 V 174.112 Z" fill-rule="evenodd" clip-rule="evenodd" fill="#977F75" transform="matrix(1, 0, 0, 1, -84.17691802978516, -67.3415298461914)"/><path d="M 277.036011 174.112 H 297.92601 V 180.465 H 277.036011 V 174.112 Z" fill-rule="evenodd" clip-rule="evenodd" fill="#977F75" transform="matrix(1, 0, 0, 1, -84.17691802978516, -67.3415298461914)"/><path d="M 301.480011 174.112 H 322.47801 V 180.465 H 301.480011 V 174.112 Z" fill-rule="evenodd" clip-rule="evenodd" fill="#977F75" transform="matrix(1, 0, 0, 1, -84.17691802978516, -67.3415298461914)"/><path d="M 325.924011 174.112 H 346.921011 V 180.465 H 325.924011 V 174.112 Z" fill-rule="evenodd" clip-rule="evenodd" fill="#977F75" transform="matrix(1, 0, 0, 1, -84.17691802978516, -67.3415298461914)"/><path d="M 350.475006 174.112 H 359.091006 V 180.465 H 350.475006 V 174.112 Z" fill-rule="evenodd" clip-rule="evenodd" fill="#977F75" transform="matrix(1, 0, 0, 1, -84.17691802978516, -67.3415298461914)"/><path fill-rule="evenodd" clip-rule="evenodd" fill="#ED9D91" d="M316.77,161.729c0,0,24.121-0.97,38.013,15.722&#10;&#9;&#9;&#9;c1.508,1.829,1.185,2.261-0.215,4.415c-7.968,11.738-67.516,11.738-75.485,0c-1.4-2.154-1.723-2.585-0.215-4.415&#10;&#9;&#9;&#9;C292.756,160.759,316.77,161.729,316.77,161.729L316.77,161.729z" transform="matrix(1, 0, 0, 1, -84.17691802978516, -67.3415298461914)"/><path fill-rule="evenodd" clip-rule="evenodd" fill="#DE8274" d="M277.897,179.712c0.107,0.538,0.538,1.184,1.185,2.154&#10;&#9;&#9;&#9;c7.969,11.738,67.517,11.738,75.485,0c0.647-0.97,1.078-1.616,1.185-2.154C329.693,182.511,303.956,182.511,277.897,179.712&#10;&#9;&#9;&#9;L277.897,179.712z" transform="matrix(1, 0, 0, 1, -84.17691802978516, -67.3415298461914)"/><path fill-rule="evenodd" clip-rule="evenodd" fill="#ED9D91" d="M233.747,161.729c0,0,24.013-0.97,37.904,15.722&#10;&#9;&#9;&#9;c1.508,1.829,1.186,2.261-0.215,4.415c-7.969,11.738-67.519,11.738-75.379,0c-1.507-2.154-1.829-2.585-0.216-4.415&#10;&#9;&#9;&#9;C209.626,160.759,233.747,161.729,233.747,161.729L233.747,161.729z" transform="matrix(1, 0, 0, 1, -84.17691802978516, -67.3415298461914)"/><path fill-rule="evenodd" clip-rule="evenodd" fill="#DE8274" d="M194.767,179.712c0.107,0.538,0.538,1.184,1.291,2.154&#10;&#9;&#9;&#9;c7.86,11.738,67.41,11.738,75.379,0c0.646-0.97,1.076-1.616,1.183-2.154C246.563,182.511,220.826,182.511,194.767,179.712&#10;&#9;&#9;&#9;L194.767,179.712z" transform="matrix(1, 0, 0, 1, -84.17691802978516, -67.3415298461914)"/><path d="M 279.513 231.291 H 386.119003 V 245.29 H 279.513 V 231.291 Z" fill-rule="evenodd" clip-rule="evenodd" fill="#977F75" transform="matrix(1, 0, 0, 1, -84.17691802978516, -67.3415298461914)"/><path d="M 164.399994 231.291 H 271.005997 V 245.29 H 164.399994 V 231.291 Z" fill-rule="evenodd" clip-rule="evenodd" fill="#977F75" transform="matrix(1, 0, 0, 1, -84.17691802978516, -67.3415298461914)"/>








</svg>